<svg width="40" height="40" viewBox="0 0 40 40" fill="none" xmlns="http://www.w3.org/2000/svg">
<path d="M31.1833 32.5C29.8 34.5667 28.3333 36.5833 26.1 36.6167C23.8667 36.6667 23.15 35.3 20.6167 35.3C18.0667 35.3 17.2833 36.5833 15.1667 36.6667C12.9833 36.75 11.3333 34.4667 9.93334 32.45C7.08334 28.3333 4.90001 20.75 7.83334 15.65C9.28334 13.1167 11.8833 11.5167 14.7 11.4667C16.8333 11.4333 18.8667 12.9167 20.1833 12.9167C21.4833 12.9167 23.95 11.1333 26.5333 11.4C27.6167 11.45 30.65 11.8333 32.6 14.7C32.45 14.8 28.9833 16.8333 29.0167 21.05C29.0667 26.0833 33.4333 27.7667 33.4833 27.7833C33.4333 27.9 32.7833 30.1833 31.1833 32.5ZM21.6667 5.83333C22.8833 4.44999 24.9 3.39999 26.5667 3.33333C26.7833 5.28333 26 7.24999 24.8333 8.64999C23.6833 10.0667 21.7833 11.1667 19.9167 11.0167C19.6667 9.1 20.6 7.09999 21.6667 5.83333Z" fill="black"/>
</svg>
