<svg width="40" height="40" viewBox="0 0 40 40" fill="none" xmlns="http://www.w3.org/2000/svg">
<path d="M20 3.39999C10.8333 3.39999 3.33334 10.8833 3.33334 20.1C3.33334 28.4333 9.43334 35.35 17.4 36.6V24.9333H13.1667V20.1H17.4V16.4167C17.4 12.2333 19.8833 9.93333 23.7 9.93333C25.5167 9.93333 27.4167 10.25 27.4167 10.25V14.3667H25.3167C23.25 14.3667 22.6 15.65 22.6 16.9667V20.1H27.2333L26.4833 24.9333H22.6V36.6C26.5274 35.9797 30.1037 33.9759 32.6832 30.9501C35.2628 27.9243 36.6756 24.0761 36.6667 20.1C36.6667 10.8833 29.1667 3.39999 20 3.39999Z" fill="#3B5998"/>
</svg>
