<svg width="40" height="40" viewBox="0 0 40 40" fill="none" xmlns="http://www.w3.org/2000/svg">
<path d="M35.5833 18.5H20.3V23.05H31.15C30.6 29.4 25.3167 32.1167 20.3167 32.1167C13.9333 32.1167 8.33333 27.0833 8.33333 20C8.33333 13.1667 13.6667 7.88333 20.3333 7.88333C25.4833 7.88333 28.5 11.1667 28.5 11.1667L31.6667 7.86666C31.6667 7.86666 27.6 3.33333 20.1667 3.33333C10.7 3.33333 3.38333 11.3333 3.38333 20C3.38333 28.4167 10.2667 36.6667 20.4167 36.6667C29.3333 36.6667 35.8333 30.55 35.8333 21.5167C35.8333 19.6 35.5833 18.5 35.5833 18.5Z" fill="black"/>
</svg>
